<?xml version="1.0" encoding="UTF-8"?>
<svg width="267px" height="50px" viewBox="0 0 267 50" version="1.1" xmlns="http://www.w3.org/2000/svg" xmlns:xlink="http://www.w3.org/1999/xlink">
    <title>logo-dark</title>
    <defs>
        <linearGradient x1="3.44180523%" y1="50.0067989%" x2="103.441805%" y2="50.0067989%" id="linearGradient-1">
            <stop stop-color="#03BEF3" offset="0%"></stop>
            <stop stop-color="#07AEF3" offset="4%"></stop>
            <stop stop-color="#0F8FF3" offset="15%"></stop>
            <stop stop-color="#1575F2" offset="26%"></stop>
            <stop stop-color="#1A61F2" offset="39%"></stop>
            <stop stop-color="#1D53F2" offset="53%"></stop>
            <stop stop-color="#1F4AF2" offset="70%"></stop>
            <stop stop-color="#2048F2" offset="100%"></stop>
        </linearGradient>
        <linearGradient x1="16.7318537%" y1="35.7200232%" x2="97.9151903%" y2="80.841187%" id="linearGradient-2">
            <stop stop-color="#03BEF3" offset="0%"></stop>
            <stop stop-color="#06B2F3" offset="6%"></stop>
            <stop stop-color="#0F8CF3" offset="25%"></stop>
            <stop stop-color="#176EF2" offset="45%"></stop>
            <stop stop-color="#1C59F2" offset="64%"></stop>
            <stop stop-color="#1F4CF2" offset="82%"></stop>
            <stop stop-color="#2048F2" offset="100%"></stop>
        </linearGradient>
        <linearGradient x1="18.7732165%" y1="10.2964556%" x2="74.8145909%" y2="94.1163925%" id="linearGradient-3">
            <stop stop-color="#00D1F1" offset="0%"></stop>
            <stop stop-color="#09ACF1" offset="28%"></stop>
            <stop stop-color="#2050F1" offset="89%"></stop>
            <stop stop-color="#243EF1" offset="100%"></stop>
        </linearGradient>
    </defs>
    <g id="页面-1" stroke="none" stroke-width="1" fill="none" fill-rule="evenodd">
        <g id="logo-dark" transform="translate(0, -0.0029)" fill-rule="nonzero">
            <g id="DigitalVirt" transform="translate(79.7927, 1.7296)" fill="#222222">
                <path d="M21.9319904,21.481333 C21.9319904,24.7193895 21.5898246,27.465061 20.9054931,29.7183477 C20.2211616,31.9716344 19.2363919,33.7993002 17.9511839,35.2013453 C16.6659759,36.6033903 15.1137118,37.6215421 13.2943914,38.2558006 C11.4750711,38.890059 9.44711306,39.2071883 7.21051739,39.2071883 C4.94053969,39.2071883 2.53703389,38.9067501 0,38.3058736 L0,4.65679248 C1.26851695,4.38973628 2.50365187,4.17275312 3.70540477,4.00584299 C4.90715767,3.83893287 6.05883753,3.75547781 7.16044435,3.75547781 C9.43042204,3.75547781 11.4750711,4.07260704 13.2943914,4.70686552 C15.1137118,5.34112399 16.6659759,6.35927575 17.9511839,7.7613208 C19.2363919,9.16336584 20.2211616,10.9910317 20.9054931,13.2443184 C21.5898246,15.4976051 21.9319904,18.2432766 21.9319904,21.481333 Z M17.1249788,21.481333 C17.1249788,19.0110632 16.9413777,16.9079956 16.5741754,15.1721303 C16.2069731,13.436265 15.6394787,12.017529 14.8716921,10.9159222 C14.1039055,9.81431533 13.0940993,9.01314673 11.8422733,8.51241636 C10.5904474,8.01168598 9.09660179,7.7613208 7.3607365,7.7613208 C6.89338815,7.7613208 6.4260398,7.77801181 5.95869145,7.81139383 C5.4913431,7.84477586 5.00730374,7.8948489 4.50657337,7.96161295 L4.50657337,35.0010531 C5.00730374,35.0678172 5.4913431,35.1178902 5.95869145,35.1512723 C6.4260398,35.1846543 6.87669714,35.2013453 7.31066346,35.2013453 C9.07991078,35.2013453 10.5821019,34.9509801 11.8172368,34.4502497 C13.0523717,33.9495194 14.062178,33.1566963 14.8466556,32.0717805 C15.6311332,30.9868646 16.2069731,29.5764741 16.5741754,27.8406088 C16.9413777,26.1047435 17.1249788,23.9849849 17.1249788,21.481333 Z" id="形状"></path>
                <path d="M32.5026721,38.856677 L28.1963909,38.856677 L28.1963909,12.5683324 L32.5026721,12.5683324 L32.5026721,38.856677 Z M30.3495315,7.91153991 C29.5817449,7.91153991 28.9224499,7.65282922 28.3716465,7.13540783 C27.8208431,6.61798644 27.5454414,5.92530943 27.5454414,5.05737678 C27.5454414,4.18944413 27.8208431,3.49676711 28.3716465,2.97934573 C28.9224499,2.46192434 29.5817449,2.20321365 30.3495315,2.20321365 C31.1173181,2.20321365 31.7766131,2.46192434 32.3274165,2.97934573 C32.8782199,3.49676711 33.1536216,4.18944413 33.1536216,5.05737678 C33.1536216,5.92530943 32.8782199,6.61798644 32.3274165,7.13540783 C31.7766131,7.65282922 31.1173181,7.91153991 30.3495315,7.91153991 Z" id="形状"></path>
                <path d="M55.5415402,38.1055815 C55.5415402,39.9749749 55.2995205,41.5522755 54.8154811,42.8374835 C54.3314418,44.1226915 53.6721468,45.1658797 52.8375962,45.9670483 C52.0030455,46.7682169 51.0266213,47.3524024 49.9083235,47.7196046 C48.7900256,48.0868069 47.5966182,48.2704081 46.3281013,48.2704081 C45.2598765,48.2704081 44.1916517,48.153571 43.1234269,47.9198968 C42.0552021,47.6862226 41.0704324,47.3357114 40.1691177,46.868363 L41.0704324,43.2631043 C41.6713088,43.5969246 42.4057134,43.8973628 43.273646,44.164419 C44.1415787,44.4314752 45.0428933,44.5650033 45.97759,44.5650033 C47.6133092,44.5650033 48.8985172,44.0976549 49.8332139,43.1629582 C50.7679106,42.2282615 51.235259,40.6259243 51.235259,38.3559466 L51.235259,37.1041207 C50.7011466,37.3377949 50.1336521,37.5297415 49.5327757,37.6799606 C48.9318992,37.8301798 48.2475677,37.9052893 47.4797811,37.9052893 C44.3418708,37.9052893 42.0468566,36.828719 40.5947385,34.6755784 C39.1426204,32.5224378 38.4165614,29.476328 38.4165614,25.5372491 C38.4165614,23.4341815 38.608508,21.5397516 38.9924013,19.8539593 C39.3762946,18.1681671 39.977171,16.73274 40.7950307,15.5476781 C41.6128903,14.3626162 42.6727696,13.4613016 43.9746685,12.8437341 C45.2765675,12.2261666 46.8622137,11.9173829 48.7316071,11.9173829 C49.966742,11.9173829 51.1768404,12.0425655 52.3619023,12.2929307 C53.5469642,12.5432959 54.6068435,12.8687706 55.5415402,13.2693549 L55.5415402,38.1055815 Z M51.235259,16.073445 C50.7679106,15.9399169 50.3172533,15.8481163 49.8832869,15.7980433 C49.4493206,15.7479703 49.0487363,15.7229337 48.681534,15.7229337 C46.6786126,15.7229337 45.218149,16.4907203 44.3001433,18.0262935 C43.3821376,19.5618666 42.9231347,22.0655185 42.9231347,25.5372491 C42.9231347,28.6751594 43.3737921,30.8867186 44.2751068,32.1719265 C45.1764214,33.4571345 46.4616294,34.0997385 48.1307306,34.0997385 C48.6982251,34.0997385 49.240683,34.0329744 49.7581044,33.8994463 C50.2755257,33.7659182 50.7679106,33.5823171 51.235259,33.3486429 L51.235259,16.073445 Z" id="形状"></path>
                <path d="M67.2138287,38.856677 L62.9075475,38.856677 L62.9075475,12.5683324 L67.2138287,12.5683324 L67.2138287,38.856677 Z M65.0606881,7.91153991 C64.2929015,7.91153991 63.6336066,7.65282922 63.0828031,7.13540783 C62.5319997,6.61798644 62.256598,5.92530943 62.256598,5.05737678 C62.256598,4.18944413 62.5319997,3.49676711 63.0828031,2.97934573 C63.6336066,2.46192434 64.2929015,2.20321365 65.0606881,2.20321365 C65.8284747,2.20321365 66.4877697,2.46192434 67.0385731,2.97934573 C67.5893765,3.49676711 67.8647782,4.18944413 67.8647782,5.05737678 C67.8647782,5.92530943 67.5893765,6.61798644 67.0385731,7.13540783 C66.4877697,7.65282922 65.8284747,7.91153991 65.0606881,7.91153991 Z" id="形状"></path>
                <path d="M78.6357521,12.5683324 L85.245393,12.5683324 L85.245393,16.2737372 L78.6357521,16.2737372 L78.6357521,30.744845 C78.6357521,32.5474743 78.9612268,33.8076458 79.6121763,34.5253593 C80.2631258,35.2430728 81.139404,35.6019296 82.2410108,35.6019296 C82.8085052,35.6019296 83.3509631,35.5184745 83.8683845,35.3515644 C84.3858059,35.1846543 84.8281177,34.9843621 85.19532,34.750688 L86.0465616,38.2057275 C84.6778986,39.0068961 83.2257805,39.4074804 81.6902074,39.4074804 C79.2199375,39.4074804 77.3755807,38.7148034 76.1571368,37.3294494 C74.9386928,35.9440953 74.3294709,33.6490811 74.3294709,30.4444067 L74.3294709,5.50803411 L78.6357521,4.75693855 L78.6357521,12.5683324 Z" id="路径"></path>
                <path d="M90.708625,13.1191358 C91.5765576,12.7519335 92.4945633,12.4598408 93.462642,12.2428576 C94.4307207,12.0258745 95.4822545,11.9173829 96.6172434,11.9173829 C98.9539851,11.9173829 100.856761,12.6434419 102.32557,14.09556 C103.794379,15.5476781 104.528783,17.8093103 104.528783,20.8804566 L104.528783,38.3058736 C103.32703,38.6396939 102.100241,38.9067501 100.848415,39.1070422 C99.5965891,39.3073344 98.3697997,39.4074804 97.1680468,39.4074804 C95.9662939,39.4074804 94.8396505,39.2572613 93.7881168,38.9568231 C92.736583,38.6563849 91.8185773,38.1723455 91.0340997,37.504705 C90.2496221,36.8370645 89.6237092,35.9941684 89.1563608,34.9760166 C88.6890125,33.9578649 88.4553383,32.7143844 88.4553383,31.2455753 C88.4553383,29.8769123 88.6639759,28.6835049 89.0812512,27.6653532 C89.4985266,26.6472014 90.0743665,25.7959598 90.808771,25.1116283 C91.5431756,24.4272967 92.4111082,23.9098754 93.412569,23.5593641 C94.4140297,23.2088528 95.4989455,23.0335972 96.6673164,23.0335972 C97.7689232,23.0335972 98.9873671,23.1671253 100.322648,23.4341815 L100.322648,21.0306757 C100.322648,19.0945183 99.9471004,17.7425463 99.1960048,16.9747597 C98.4449092,16.2069731 97.3683389,15.8230798 95.9662939,15.8230798 C95.1985073,15.8230798 94.4724483,15.8981894 93.7881168,16.0484085 C93.1037853,16.1986276 92.3777262,16.4406473 91.6099396,16.7744675 L90.708625,13.1191358 Z M92.7616195,31.1955023 C92.7616195,32.7310754 93.1622038,33.8660643 93.9633724,34.6004688 C94.764541,35.3348734 95.8995298,35.7020757 97.3683389,35.7020757 C98.2696536,35.7020757 99.2544233,35.5852386 100.322648,35.3515644 L100.322648,26.9893672 C99.3211874,26.722311 98.3364177,26.5887829 97.3683389,26.5887829 C96.7340805,26.5887829 96.133204,26.6638924 95.5657096,26.8141115 C94.9982152,26.9643306 94.5058303,27.2146958 94.088555,27.5652071 C93.6712797,27.9157184 93.3458049,28.3830667 93.1121308,28.9672521 C92.8784566,29.5514376 92.7616195,30.2941876 92.7616195,31.1955023 Z" id="形状"></path>
                <path d="M118.454359,39.3574074 C115.984089,39.2906433 114.214841,38.6814214 113.146617,37.5297415 C112.078392,36.3780617 111.544279,34.5503958 111.544279,32.0467439 L111.544279,0.751095561 L115.850561,0 L115.850561,32.14689 C115.850561,33.3152609 116.084235,34.158157 116.551583,34.6755784 C117.018931,35.1929998 117.836791,35.5518566 119.005162,35.7521487 L118.454359,39.3574074 Z" id="路径"></path>
                <path d="M129.525771,38.856677 C128.757984,36.3530252 127.990197,33.8243368 127.222411,31.2706119 C126.454624,28.7168869 125.695183,26.0379794 124.944088,23.2338894 C124.192992,20.4297993 123.450242,17.4671445 122.715838,14.3459252 C121.981433,11.2247059 121.247028,7.82808485 120.512624,4.1560621 L125.219489,4.1560621 C125.653456,6.72647802 126.137495,9.30523945 126.671608,11.8923464 C127.20572,14.4794533 127.773214,17.0248327 128.374091,19.5284846 C128.974967,22.0321365 129.584189,24.4606788 130.201757,26.8141115 C130.819324,29.1675443 131.428546,31.3957945 132.029423,33.498862 C132.630299,31.3957945 133.239521,29.1675443 133.857088,26.8141115 C134.474656,24.4606788 135.083878,22.0321365 135.684754,19.5284846 C136.285631,17.0248327 136.853125,14.4794533 137.387238,11.8923464 C137.92135,9.30523945 138.405389,6.72647802 138.839356,4.1560621 L143.396002,4.1560621 C142.661597,7.82808485 141.927193,11.2247059 141.192788,14.3459252 C140.458384,17.4671445 139.715634,20.4297993 138.964538,23.2338894 C138.213443,26.0379794 137.454002,28.7168869 136.686215,31.2706119 C135.918428,33.8243368 135.150642,36.3530252 134.382855,38.856677 L129.525771,38.856677 Z" id="路径"></path>
                <path d="M152.214127,38.856677 L147.907846,38.856677 L147.907846,12.5683324 L152.214127,12.5683324 L152.214127,38.856677 Z M150.060987,7.91153991 C149.2932,7.91153991 148.633905,7.65282922 148.083102,7.13540783 C147.532298,6.61798644 147.256897,5.92530943 147.256897,5.05737678 C147.256897,4.18944413 147.532298,3.49676711 148.083102,2.97934573 C148.633905,2.46192434 149.2932,2.20321365 150.060987,2.20321365 C150.828773,2.20321365 151.488068,2.46192434 152.038872,2.97934573 C152.589675,3.49676711 152.865077,4.18944413 152.865077,5.05737678 C152.865077,5.92530943 152.589675,6.61798644 152.038872,7.13540783 C151.488068,7.65282922 150.828773,7.91153991 150.060987,7.91153991 Z" id="形状"></path>
                <path d="M170.996787,16.4740293 C169.928563,16.006681 168.72681,15.7730068 167.391529,15.7730068 C166.156394,15.7730068 165.004714,15.9899899 163.936489,16.4239563 L163.936489,38.856677 L159.630208,38.856677 L159.630208,13.7200122 C160.598287,13.2526639 161.708239,12.8604251 162.960065,12.5432959 C164.211891,12.2261666 165.588899,12.067602 167.09109,12.067602 C167.892259,12.067602 168.693428,12.1176751 169.494596,12.2178211 C170.295765,12.3179672 171.04686,12.5015683 171.747883,12.7686245 L170.996787,16.4740293 Z" id="路径"></path>
                <path d="M179.664694,12.5683324 L186.274335,12.5683324 L186.274335,16.2737372 L179.664694,16.2737372 L179.664694,30.744845 C179.664694,32.5474743 179.990168,33.8076458 180.641118,34.5253593 C181.292067,35.2430728 182.168345,35.6019296 183.269952,35.6019296 C183.837447,35.6019296 184.379905,35.5184745 184.897326,35.3515644 C185.414747,35.1846543 185.857059,34.9843621 186.224262,34.750688 L187.075503,38.2057275 C185.70684,39.0068961 184.254722,39.4074804 182.719149,39.4074804 C180.248879,39.4074804 178.404522,38.7148034 177.186078,37.3294494 C175.967634,35.9440953 175.358412,33.6490811 175.358412,30.4444067 L175.358412,5.50803411 L179.664694,4.75693855 L179.664694,12.5683324 Z" id="路径"></path>
            </g>
            <g id="logo">
                <path d="M55.8157553,18.5351844 L52.3385336,18.5351844 C52.0429998,8.23698882 43.6094871,0.0420258189 33.3070518,0.0420258189 C23.0046166,0.0420258189 14.5711038,8.23698882 14.2755701,18.5351844 L10.0806523,18.5351844 C4.50675517,18.579061 0,23.3663131 0,29.2692848 C0,35.1722566 4.50675517,39.9595086 10.0806523,40.0002512 L10.0806523,40.0002512 L55.7421053,40.0002512 L55.7421053,40.0002512 L55.8157553,40.0002512 C61.4256939,40.0002512 65.9716246,35.1941949 65.9716246,29.2661508 C65.9716246,23.3381067 61.4272609,18.5351844 55.8157553,18.5351844 Z" id="路径" fill="url(#linearGradient-1)"></path>
                <path d="M65.8587991,29.2692848 C65.8587991,23.3396737 61.3144354,18.5351844 55.7029297,18.5351844 L52.2163059,18.5351844 C51.9207721,8.23698882 43.4872593,0.0420258189 33.1848241,0.0420258189 C22.8823889,0.0420258189 14.4488761,8.23698882 14.1533424,18.5351844 L14.1533424,18.5351844 C14.1533424,18.5351844 12.7524247,37.7578428 48.9490651,40.0033853 L55.6292797,40.0033853 L55.6292797,40.0033853 L55.7029297,40.0033853 C61.3113013,40.0033853 65.8587991,35.1973289 65.8587991,29.2692848 Z" id="路径" fill="url(#linearGradient-2)"></path>
                <path d="M55.8220234,18.4709365 L55.7483734,18.4709365 L55.7483734,18.4709365 L52.3385336,18.4709365 C52.0418046,8.18550314 43.6187028,0.00125603342 33.3289901,0.000448591858 C30.9883667,-0.0158001317 28.6656731,0.409504249 26.4826712,1.25406616 C26.4575988,1.26346829 26.2617211,1.34181939 26.2429168,1.35435557 L26.2429168,1.36532472 C26.2429168,1.36532472 16.5837934,35.3273917 54.8457687,39.9171991 L55.8282915,39.9171991 C61.4272609,39.9171991 65.9716246,35.1158438 65.9716246,29.1940678 C65.9716246,23.2722918 61.4272609,18.4709365 55.8220234,18.4709365 Z" id="路径" fill="url(#linearGradient-3)"></path>
            </g>
        </g>
    </g>
</svg>